<svg id="Layer_1" data-name="Layer 1" xmlns="http://www.w3.org/2000/svg" viewBox="0 0 599.98 102.67"><defs><style>.cls-1{fill:#0072bc;}.cls-2{fill:#808285;}</style></defs><title>Artboard 3</title><path class="cls-1" d="M32,50.33a12.74,12.74,0,0,1,11.31-10l43.61.08L82.56,47H73.62l-11,16.87s-1.74,2.08.11,2.31h8.61l-3.71,6.13H59.88s-8.84-.23-5.34-7.74L66.2,47H53.33l-16,24.85H29.12L45.7,46.63s-3.93-.81-5.89,3.7Z"/><path class="cls-1" d="M90.48,23.27c6.37,3.66,11.11,8.95,13.31,15.58C110,57.41,93.92,79.46,67.94,88.1s-52,.61-58.22-17.95C4.18,53.48,16.57,34,38,23.93c0,0-4.73,2.55-9,9.26C64,8.29,90.48,23.27,90.48,23.27ZM90.09,33c5.5,10.92,2.18,19.37,2.18,19.37a19.68,19.68,0,0,0-.69-9.5C87,29.18,67.71,23.23,48.49,29.63,34.4,34.32,24.64,44.43,21.64,54.74,14.08,80.71,44.2,86,44.2,86c-14-4.59-19.1-14.06-19.1-14.06C32.53,81.38,48.81,84.77,65,79.37,111,63,90.09,33,90.09,33Z"/><path class="cls-2" d="M119.67,75.13l.55-7.37,1-25.39.13-5.45q0-1.3,0-2.57V30.82q4.06.06,6.59.06,1.53,0,4.68-.06t4.71-.07a22.73,22.73,0,0,1,6.1.6,8.91,8.91,0,0,1,3.51,2,9.94,9.94,0,0,1,2.4,3.49,11.66,11.66,0,0,1,.88,4.58,13.39,13.39,0,0,1-2.08,7.35,12.73,12.73,0,0,1-5.66,4.87,19.36,19.36,0,0,1-8,1.61,30.28,30.28,0,0,1-5.19-.5,37.12,37.12,0,0,0-1.12-4.06,25.54,25.54,0,0,0,4.95.5,18.3,18.3,0,0,0,4.48-.54,9.27,9.27,0,0,0,3.66-1.78,8.46,8.46,0,0,0,2.38-3.13,9.61,9.61,0,0,0,.85-4,7.56,7.56,0,0,0-.62-3.07,5.52,5.52,0,0,0-1.71-2.24,6.14,6.14,0,0,0-2.47-1.12,20.83,20.83,0,0,0-4-.29H133l-3.41.06-2.54,0q-.41,7.1-.59,12.91L126,61.31q-.24,7.59-.24,10.15v3.67l-3-.07Z"/><path class="cls-2" d="M168.16,41.5a21.52,21.52,0,0,1,6.5,1A13.81,13.81,0,0,1,180,45.56a13.42,13.42,0,0,1,3.43,5.32,19.63,19.63,0,0,1,1.17,6.78A22,22,0,0,1,183.36,65a17.3,17.3,0,0,1-3.51,6,13.41,13.41,0,0,1-5.53,3.62,20.94,20.94,0,0,1-7,1.15,20.52,20.52,0,0,1-6.57-1,13.86,13.86,0,0,1-5.35-3.24,14.29,14.29,0,0,1-3.43-5.4,19.31,19.31,0,0,1-1.17-6.7,20.75,20.75,0,0,1,2.15-9.52,13.94,13.94,0,0,1,6.31-6.32A19.56,19.56,0,0,1,168.16,41.5ZM168,45.63a11.67,11.67,0,0,0-6.09,1.66,9.84,9.84,0,0,0-4.11,5,19.34,19.34,0,0,0-1.33,7.25,16.42,16.42,0,0,0,1.1,6.18,9.48,9.48,0,0,0,3.64,4.43,10.76,10.76,0,0,0,6.11,1.69,12.86,12.86,0,0,0,4.61-.83,9.26,9.26,0,0,0,3.8-2.74,12.27,12.27,0,0,0,2.4-4.69,21.44,21.44,0,0,0,.78-5.82,17.89,17.89,0,0,0-.78-5.35,8.89,8.89,0,0,0-6-6.13A14.06,14.06,0,0,0,168,45.63Z"/><path class="cls-2" d="M187.51,75.13q1.16-18.73,1.16-29.89l0-3,2.73,0,2.77,0-.27,5.39a19.75,19.75,0,0,1,2.13-3,8.44,8.44,0,0,1,2.1-1.69,10.58,10.58,0,0,1,2.65-1,12.49,12.49,0,0,1,3.07-.37,11.79,11.79,0,0,1,2.7.31q0,2.12.25,4.75a13.66,13.66,0,0,0-3.62-.56,8.94,8.94,0,0,0-3.46.64,8,8,0,0,0-2.75,1.92,10.54,10.54,0,0,0-2,3.08,14.2,14.2,0,0,0-1,3.72q-.34,2.28-.54,8.31-.13,4.38-.13,9.28v2.17q-1.75-.06-2.81-.07T187.51,75.13Z"/><path class="cls-2" d="M224.12,70.82q-.34,1.6-.75,4.25a30.06,30.06,0,0,1-3.51.62q-1.3.12-2.47.13a12.48,12.48,0,0,1-4.67-.73A5.47,5.47,0,0,1,210,72.75a8.61,8.61,0,0,1-.94-4.37q0-.36,0-1.26t.33-6.33l.78-14.54h-4.33q.13-1.36.23-3.87h4.4q.16-1.81.32-6.19,3.06-.59,5.18-1.12-.22,4.81-.25,7.31h9q-.16,2-.19,3.87h-9l-.85,18.27,0,1.4a9,9,0,0,0,.53,3.55,3.34,3.34,0,0,0,1.6,1.7,5.05,5.05,0,0,0,2.23.52,12.88,12.88,0,0,0,1.75-.13A33.7,33.7,0,0,0,224.12,70.82Z"/><path class="cls-2" d="M227.66,47.5q.3-1.44.63-4.25a57,57,0,0,1,6.77-1.38,43.62,43.62,0,0,1,5.6-.37,26.56,26.56,0,0,1,5.47.54,11.22,11.22,0,0,1,4.24,1.74,5.82,5.82,0,0,1,2.24,2.76,9.94,9.94,0,0,1,.55,3.34q0,2.24-.33,7.51t-.5,9.75q-.17,4.48-.17,8-1.78-.06-2.89-.07t-3,.07l.65-8.86.46-10.48q-1.13.88-1.7,1.23a9.35,9.35,0,0,1-1.28.66q-.71.31-1.57.58t-3.33,1q-2.48.68-3.51,1a20.45,20.45,0,0,0-3.53,1.43,10.17,10.17,0,0,0-2.17,1.56,5.22,5.22,0,0,0-1.23,1.69,5.71,5.71,0,0,0-.42,2.17,4.71,4.71,0,0,0,1,3,5.38,5.38,0,0,0,2.62,1.8,12.58,12.58,0,0,0,3.79.5,22.36,22.36,0,0,0,2.86-.19,23.92,23.92,0,0,0,4-1,34,34,0,0,0-1.06,3.87,36.16,36.16,0,0,1-3.87.57q-1.5.11-2.83.11a18.72,18.72,0,0,1-7-1,7.47,7.47,0,0,1-3.74-3.16A9,9,0,0,1,223.28,67a8,8,0,0,1,.44-2.69,8.52,8.52,0,0,1,1.18-2.24,9.82,9.82,0,0,1,2.12-2,14.82,14.82,0,0,1,2.89-1.65q1.51-.65,3.52-1.28t6.45-1.7a24.91,24.91,0,0,0,2.43-.66q1-.34,1.78-.66a6.3,6.3,0,0,0,1.36-.76,5.55,5.55,0,0,0,1.07-1.07,4.61,4.61,0,0,0,.71-1.28,4,4,0,0,0-.81-4,5.54,5.54,0,0,0-2.7-1.58,15.17,15.17,0,0,0-3.93-.45,28.53,28.53,0,0,0-4.32.34,29.93,29.93,0,0,0-3.82.81Q230.06,46.56,227.66,47.5Z"/><path class="cls-2" d="M257.6,75.13q.67-10,1.3-23.7.43-10,.63-20.61l3,0,2.88,0-1,19.06-.72,19.28-.13,6q-1.92-.06-2.86-.07Z"/><path class="cls-1" d="M282.67,75.13Q283.48,64,284,52.23t.51-17.94l0-3.47,5.42.06,5-.06q-1.37,17.08-1.74,44.31l-4.78-.07Z"/><path class="cls-1" d="M298,75.13q.74-7.37,1.24-16.55t.56-16.45q3,.06,4.78.06,2.11,0,4.48-.06l-.39,5.49a24.57,24.57,0,0,1,1.77-2.27,11,11,0,0,1,2-1.66,11.26,11.26,0,0,1,2.54-1.3,18.2,18.2,0,0,1,3-.78,20.32,20.32,0,0,1,3.5-.29A20.82,20.82,0,0,1,327,42a9.67,9.67,0,0,1,4.28,2.32,7.74,7.74,0,0,1,2.15,3.48,14.92,14.92,0,0,1,.52,4q0,.88-.1,2.79l-.7,14.19q-.13,3-.17,6.3-2.56-.06-4.37-.07-2.46,0-5,.07.27-2.83.66-9.86t.4-9.31a9,9,0,0,0-.82-4.14,5.34,5.34,0,0,0-2.53-2.38,8.54,8.54,0,0,0-3.71-.82,9,9,0,0,0-3.66.75,8.27,8.27,0,0,0-2.94,2.18,10.2,10.2,0,0,0-2,3.61A34,34,0,0,0,308,62.69q-.31,4.65-.5,12.44-2.49-.06-4.5-.07T298,75.13Z"/><path class="cls-1" d="M357.76,68.32q-.4,1.79-1.25,6.62a39.48,39.48,0,0,1-4.29.78,28.79,28.79,0,0,1-2.92.16,18.55,18.55,0,0,1-4.3-.45,6.81,6.81,0,0,1-3.13-1.61,5.81,5.81,0,0,1-1.67-2.69,11.63,11.63,0,0,1-.44-3.2c0-.28,0-.66,0-1.14s.11-2,.27-4.61l.77-13.5h-4.7q.16-1.94.29-6.25h4.92q.2-1.88.4-6.37l3.82-.74q1.2-.23,4.63-1.07-.19,4.37-.22,8.19h8.22q-.23,4.37-.23,6.25h-8.25Q349,61.87,349,63.94a8.69,8.69,0,0,0,.44,3.11,2.89,2.89,0,0,0,1.42,1.59,4.62,4.62,0,0,0,2.09.49,12.3,12.3,0,0,0,1.71-.12Q355.51,68.88,357.76,68.32Z"/><path class="cls-1" d="M388.39,67.75q-.42,1.91-1.19,6.87-3.51.74-5.92,1a46,46,0,0,1-4.85.26A31.52,31.52,0,0,1,368.8,75a13.8,13.8,0,0,1-5.91-3.1,13.49,13.49,0,0,1-3.74-5.53,19.76,19.76,0,0,1-1.2-6.87,21.94,21.94,0,0,1,1.4-7.73,15.94,15.94,0,0,1,3.92-6.13A14.41,14.41,0,0,1,369,42.3a22.77,22.77,0,0,1,6.73-1,23.57,23.57,0,0,1,6.3.83,11.94,11.94,0,0,1,5,2.71,12.67,12.67,0,0,1,3.12,4.52,15.33,15.33,0,0,1,1.09,5.89,16.06,16.06,0,0,1-.32,3.15l-23.8,0q-.07,1.2-.07,1.91a10.36,10.36,0,0,0,.75,4A8.22,8.22,0,0,0,370,67.41a9,9,0,0,0,3.41,1.86,13.4,13.4,0,0,0,3.9.6,26.84,26.84,0,0,0,4.86-.48A51.22,51.22,0,0,0,388.39,67.75Zm-21-13.06,15.19,0a20,20,0,0,0-.1-2.32,8.54,8.54,0,0,0-.44-1.71,5.83,5.83,0,0,0-.93-1.7,5.42,5.42,0,0,0-1.36-1.23A6.28,6.28,0,0,0,378,47a8.83,8.83,0,0,0-2.19-.26,8.35,8.35,0,0,0-2.65.42,8,8,0,0,0-2.35,1.24A7.46,7.46,0,0,0,369,50.25a9,9,0,0,0-1,1.94A20.41,20.41,0,0,0,367.39,54.69Z"/><path class="cls-1" d="M395.15,81.94a40.92,40.92,0,0,0,12.66,2.44,14.47,14.47,0,0,0,3.86-.5,8.74,8.74,0,0,0,3.05-1.46,6.23,6.23,0,0,0,1.92-2.59,13.53,13.53,0,0,0,.91-3.79q.23-2.15.36-6.52a20.61,20.61,0,0,1-2.27,2.68,11.21,11.21,0,0,1-2.42,1.72,14.11,14.11,0,0,1-3.29,1.24,16.89,16.89,0,0,1-9.38-.42A12.42,12.42,0,0,1,396,71.92a12.28,12.28,0,0,1-3-4.83,17.88,17.88,0,0,1-1-6.06,21.72,21.72,0,0,1,1.7-8.55,16.44,16.44,0,0,1,5-6.63,19.06,19.06,0,0,1,7-3.57,33.08,33.08,0,0,1,8.32-1q2.53,0,5.74.31t8.5,1.25l-.74,10.29L426.8,66l-.26,11.65a24.06,24.06,0,0,1-.49,3.81,11.42,11.42,0,0,1-1.23,3.31,10.16,10.16,0,0,1-2.14,2.61,11,11,0,0,1-2.94,1.83,20,20,0,0,1-4.06,1.15,28.11,28.11,0,0,1-5.17.45,65.24,65.24,0,0,1-6.72-.39A62.23,62.23,0,0,1,395.59,89Zm23.65-33.37a26.74,26.74,0,0,0-5.21-.56,14.08,14.08,0,0,0-7,1.55,10.37,10.37,0,0,0-4.24,4.51,13.8,13.8,0,0,0-1.49,6.28,11.33,11.33,0,0,0,.91,4.54,6.44,6.44,0,0,0,2.83,3.17,8.59,8.59,0,0,0,4.26,1.07,9,9,0,0,0,3.09-.52A7.67,7.67,0,0,0,414.6,67a10.65,10.65,0,0,0,2.06-2.67,11.74,11.74,0,0,0,1.26-3.6,43.46,43.46,0,0,0,.57-5Q418.68,52.7,418.81,48.57Z"/><path class="cls-1" d="M431.37,75.13l1-15.41.27-9q.06-2.76.07-5.55,0-.49-.07-3.08,3,.06,4.44.06,1.65,0,4.37-.06l-.16,4.55a19.64,19.64,0,0,1,2.1-2.61,9.21,9.21,0,0,1,4.37-2.42,11.38,11.38,0,0,1,2.72-.33,11.85,11.85,0,0,1,2.65.31q0,3.05.31,7.75a11.33,11.33,0,0,0-3.47-.62,9,9,0,0,0-3.33.57,7.57,7.57,0,0,0-2.6,1.73,9.31,9.31,0,0,0-1.9,2.85,12.92,12.92,0,0,0-.91,3.55q-.25,1.69-.43,5.78t-.18,8.05q0,1.53.1,3.83-2.48-.06-4.53-.07T431.37,75.13Z"/><path class="cls-1" d="M456.42,49.25q.47-2.31.58-3.24t.42-2.82a75.48,75.48,0,0,1,7.78-1.45,52.61,52.61,0,0,1,6.51-.42,24.43,24.43,0,0,1,6.55.83,9.74,9.74,0,0,1,4.67,2.65A7.42,7.42,0,0,1,484.61,50q0,1.85-.51,9.44t-.61,15.67q-2.47-.06-4.55-.07t-4.65.07q.42-3.93.68-9.1l.42-8.09a20.69,20.69,0,0,1-1.88,1.14,11.54,11.54,0,0,1-1.46.6q-.81.28-2.85.84t-3.28,1a14.51,14.51,0,0,0-2.22,1,7.46,7.46,0,0,0-1.67,1.2,4.31,4.31,0,0,0-1,1.39,4,4,0,0,0-.31,1.57,3.64,3.64,0,0,0,.79,2.35,4.13,4.13,0,0,0,2,1.38,9.13,9.13,0,0,0,2.82.39,15.2,15.2,0,0,0,2.18-.17,18.19,18.19,0,0,0,3.09-.83A57.7,57.7,0,0,0,470,75.32q-2.31.37-3.67.47t-2.53.09a17.54,17.54,0,0,1-6.72-1.1,7.48,7.48,0,0,1-3.88-3.51A10.38,10.38,0,0,1,452,66.43a8.14,8.14,0,0,1,.49-2.76,8.22,8.22,0,0,1,1.43-2.5A12.53,12.53,0,0,1,456.34,59a18,18,0,0,1,4.32-2,65.26,65.26,0,0,1,7.47-2q1.23-.26,2.57-.63a15.81,15.81,0,0,0,2.13-.73,4.75,4.75,0,0,0,1.38-.93,3.89,3.89,0,0,0,.86-1.19,3.18,3.18,0,0,0-.55-3.44,4.37,4.37,0,0,0-2.14-1.23,11.42,11.42,0,0,0-2.9-.35A35.92,35.92,0,0,0,456.42,49.25Z"/><path class="cls-1" d="M508.55,68.32q-.4,1.79-1.25,6.62a39.48,39.48,0,0,1-4.29.78,28.79,28.79,0,0,1-2.92.16,18.55,18.55,0,0,1-4.3-.45,6.81,6.81,0,0,1-3.13-1.61A5.81,5.81,0,0,1,491,71.12a11.63,11.63,0,0,1-.44-3.2c0-.28,0-.66,0-1.14s.11-2,.27-4.61l.77-13.5h-4.7q.16-1.94.29-6.25h4.92q.2-1.88.4-6.37l3.82-.74q1.2-.23,4.63-1.07-.19,4.37-.22,8.19H509q-.23,4.37-.23,6.25h-8.25q-.76,13.18-.76,15.25a8.69,8.69,0,0,0,.44,3.11,2.89,2.89,0,0,0,1.42,1.59,4.62,4.62,0,0,0,2.09.49A12.3,12.3,0,0,0,505.4,69Q506.3,68.88,508.55,68.32Z"/><path class="cls-1" d="M527.42,41.32a22.91,22.91,0,0,1,7.16,1.12,15.66,15.66,0,0,1,5.81,3.31A13.81,13.81,0,0,1,544,51.1a18.63,18.63,0,0,1,1.2,6.67,20.52,20.52,0,0,1-1.27,7.14,17,17,0,0,1-3.67,6,14.92,14.92,0,0,1-6,3.76,23.12,23.12,0,0,1-7.65,1.25,22.75,22.75,0,0,1-7.16-1.12,15.48,15.48,0,0,1-5.8-3.36A14.55,14.55,0,0,1,510,65.95a18.35,18.35,0,0,1-1.25-6.72,20.47,20.47,0,0,1,1.14-6.81,15.86,15.86,0,0,1,3.56-5.78,16.16,16.16,0,0,1,6.19-3.93A22.28,22.28,0,0,1,527.42,41.32Zm0,6.69a9.34,9.34,0,0,0-5,1.38,8.24,8.24,0,0,0-3.3,4.1A15.91,15.91,0,0,0,518,59.42a13.34,13.34,0,0,0,.89,5A7.69,7.69,0,0,0,521.8,68a8.4,8.4,0,0,0,4.81,1.36,8.91,8.91,0,0,0,5-1.41,8.54,8.54,0,0,0,3.24-4.15,16.31,16.31,0,0,0,1.08-6,13.65,13.65,0,0,0-.84-4.9,7.29,7.29,0,0,0-2.83-3.54A8.52,8.52,0,0,0,527.42,48Z"/><path class="cls-1" d="M547.37,75.13l1-15.41.27-9q.06-2.76.07-5.55,0-.49-.07-3.08,3,.06,4.44.06,1.65,0,4.37-.06l-.16,4.55a19.63,19.63,0,0,1,2.1-2.61,9.21,9.21,0,0,1,4.37-2.42,11.38,11.38,0,0,1,2.72-.33,11.85,11.85,0,0,1,2.65.31q0,3.05.31,7.75a11.33,11.33,0,0,0-3.47-.62,9,9,0,0,0-3.33.57,7.58,7.58,0,0,0-2.6,1.73,9.31,9.31,0,0,0-1.9,2.85,12.92,12.92,0,0,0-.91,3.55q-.25,1.69-.43,5.78t-.18,8.05q0,1.53.1,3.83-2.48-.06-4.53-.07T547.37,75.13Z"/><path class="cls-1" d="M569,74.5l-.69-7.19a35.68,35.68,0,0,0,5.39,1.81,18.27,18.27,0,0,0,4.06.5,9.64,9.64,0,0,0,3.12-.44,3.73,3.73,0,0,0,1.88-1.29,3,3,0,0,0,.62-1.8,3.46,3.46,0,0,0-.08-.78,3,3,0,0,0-.29-.74,4.78,4.78,0,0,0-.49-.73,7.13,7.13,0,0,0-.76-.78q-.49-.44-1.4-1.12l-1.76-1.4q-2.54-2-3.87-3.12a15.43,15.43,0,0,1-2.24-2.32,9.15,9.15,0,0,1-1.38-2.5,7.79,7.79,0,0,1,1-7.19,8.24,8.24,0,0,1,4.2-3.13,19.21,19.21,0,0,1,6.49-1,56.12,56.12,0,0,1,9.8,1l.44,6.75a19.38,19.38,0,0,0-7.21-1.5,12.86,12.86,0,0,0-3.28.37,3.74,3.74,0,0,0-2,1.14,2.65,2.65,0,0,0-.61,1.71,3.17,3.17,0,0,0,.19,1.09,3.84,3.84,0,0,0,.68,1.12,8.25,8.25,0,0,0,1.12,1.11q.63.52,2.64,2t3.51,2.76a15.77,15.77,0,0,1,2.48,2.48A9.8,9.8,0,0,1,592,64.07a8.41,8.41,0,0,1,.52,2.89,7.57,7.57,0,0,1-1.5,4.51,9.67,9.67,0,0,1-4.52,3.25,18.63,18.63,0,0,1-6.76,1.17,45.11,45.11,0,0,1-4.75-.3A47.68,47.68,0,0,1,569,74.5Z"/></svg>